<svg width="85" height="58" viewBox="0 0 85 58" fill="none" xmlns="http://www.w3.org/2000/svg">
<path fill-rule="evenodd" clip-rule="evenodd" d="M17.9805 49.7928C8.05017 49.7928 0 41.7426 0 31.8122C0 21.8819 8.05017 13.8317 17.9805 13.8317C20.4267 13.8317 22.7588 14.3202 24.8846 15.2049C28.672 6.31827 37.4871 0.088623 47.7572 0.088623C61.4827 0.088623 72.6093 11.2153 72.6093 24.9407C72.6093 26.453 72.4743 27.9337 72.2155 29.3714C72.8616 29.2446 73.5294 29.1781 74.2127 29.1781C79.9053 29.1781 84.52 33.7928 84.52 39.4854C84.52 45.178 79.9053 49.7927 74.2127 49.7927C73.6673 49.7927 73.1318 49.7504 72.6093 49.6688V49.7929L49.7747 49.7929L42.2601 57.3075L34.7454 49.7928L17.9805 49.7928ZM37.9501 40.6426L54.5556 24.0371L50.2127 19.6943L37.9501 31.9569L32.1898 26.1967L27.847 30.5395L37.9501 40.6426Z" fill="url(#paint0_linear)"/>
<defs>
<linearGradient id="paint0_linear" x1="42.26" y1="7.07706" x2="42.26" y2="57.3075" gradientUnits="userSpaceOnUse">
<stop offset="0.197917" stop-color="#B558FF"/>
<stop offset="0.823198" stop-color="#A93CFF"/>
</linearGradient>
</defs>
</svg>
