<svg width="85" height="64" viewBox="0 0 85 64" fill="none" xmlns="http://www.w3.org/2000/svg">
<path d="M8.09995 15.3C11.0823 15.3 13.5 12.8823 13.5 9.9C13.5 6.91766 11.0823 4.5 8.09995 4.5C5.11761 4.5 2.69995 6.91766 2.69995 9.9C2.69995 12.8823 5.11761 15.3 8.09995 15.3Z" fill="#1D91F8"/>
<path d="M68.8999 20.0999C66.6999 8.8999 56.7999 0.399902 44.9999 0.399902C33.3999 0.399902 23.5999 8.5999 21.1999 19.4999C21.0999 19.4999 21.0999 19.4999 20.9999 19.4999C9.29993 19.4999 -0.20007 29.0999 0.19993 40.9999C0.59993 52.1999 10.1999 60.9999 21.4999 60.9999H27.1999C29.7999 60.9999 31.1999 57.9999 29.4999 55.9999L19.0999 44.1999C16.3999 41.0999 16.3999 36.3999 19.3999 33.5999C22.4999 30.6999 27.2999 30.9999 30.0999 34.0999L41.1999 46.6999L56.5999 27.6999C59.1999 24.3999 63.9999 23.9999 67.1999 26.6999C70.2999 29.3999 70.4999 34.0999 67.8999 37.2999L52.6999 56.0999C51.0999 58.0999 52.4999 60.9999 54.9999 60.9999H63.4999C74.8999 60.9999 84.4999 51.9999 84.6999 40.5999C84.8999 30.5999 78.0999 22.2999 68.8999 20.0999Z" fill="#1D91F8"/>
</svg>
